<svg width="56" height="56" viewBox="0 0 56 56" fill="none" xmlns="http://www.w3.org/2000/svg">
<rect width="56" height="56" rx="14" fill="#0B1012"/>
<path d="M22.666 17.5093C27.0181 13.1575 34.1049 13.1575 38.457 17.5093C40.3913 19.4435 41.544 22.0671 41.7266 24.8276L41.75 25.3823C41.7486 28.3362 40.5777 31.1229 38.457 33.2437C36.2818 35.4189 33.4372 36.48 30.5898 36.48C28.0782 36.4799 25.5668 35.6425 23.502 33.9683L23.3281 33.8257L15.7461 41.4077C15.538 41.627 15.3167 41.6946 15.1172 41.6812C14.91 41.667 14.7009 41.5627 14.5371 41.396C14.3737 41.2294 14.2684 41.0142 14.252 40.7983C14.2361 40.5889 14.3023 40.3632 14.5078 40.1577L15.4785 39.189L21.8672 32.7983L22.0254 32.6401L21.8848 32.4644C18.3136 28.0559 18.5929 21.5824 22.666 17.5093ZM30.5332 15.9995C28.1296 15.9995 25.7266 16.9371 23.9102 18.7534C20.2755 22.3881 20.2756 28.3648 23.9102 31.9995C27.544 35.6333 33.5174 35.6336 37.1523 32.0015L37.1543 32.0034C38.9739 30.2423 39.9102 27.8934 39.9102 25.3765C39.91 22.856 38.9136 20.5108 37.1562 18.7534C35.3398 16.937 32.9368 15.9995 30.5332 15.9995Z" fill="white" stroke="black" stroke-width="0.25"/>
<path d="M30.5356 19.0308C30.7707 19.0278 30.997 19.0998 31.1587 19.2339C31.3147 19.3632 31.4243 19.5603 31.4243 19.8433V24.8628C31.4243 24.9535 31.4276 25.0472 31.4302 25.1284C31.4328 25.2119 31.4352 25.2873 31.4321 25.3589C31.4261 25.4967 31.4011 25.6027 31.3501 25.6929C31.1923 25.9009 30.9837 26.114 30.813 26.2847L27.5044 29.5933L27.4985 29.5972C27.2902 29.8171 27.0694 29.886 26.8696 29.8726C26.6625 29.8584 26.4533 29.7541 26.2896 29.5874C26.1261 29.4208 26.0209 29.2055 26.0044 28.9897C25.9885 28.7803 26.0548 28.5546 26.2603 28.3491L29.5688 25.0405L29.6431 24.9683V19.8999C29.6432 19.5996 29.7549 19.3908 29.9126 19.2534C30.0754 19.1116 30.3011 19.0339 30.5356 19.0308Z" fill="white" stroke="black" stroke-width="0.25"/>
</svg>
